<?xml version="1.0" encoding="UTF-8"?>
<svg width="24" height="24" viewBox="0 0 24 24" fill="none" xmlns="http://www.w3.org/2000/svg">
  <defs>
    <linearGradient id="gShield" x1="5" y1="3" x2="19" y2="21" gradientUnits="userSpaceOnUse">
      <stop offset="0" stop-color="#64FFDA"/>
      <stop offset="0.55" stop-color="#40C4FF"/>
      <stop offset="1" stop-color="#7C4DFF"/>
    </linearGradient>
    <linearGradient id="gHighlight" x1="7" y1="5" x2="15" y2="13" gradientUnits="userSpaceOnUse">
      <stop offset="0" stop-color="#FFFFFF" stop-opacity="0.55"/>
      <stop offset="1" stop-color="#FFFFFF" stop-opacity="0"/>
    </linearGradient>
  </defs>

  <!-- Shield body -->
  <path d="M12 2.6C9.6 4.3 7.2 5.1 4.8 5.5V12.2C4.8 16.4 7.7 20 12 21.4C16.3 20 19.2 16.4 19.2 12.2V5.5C16.8 5.1 14.4 4.3 12 2.6Z" fill="url(#gShield)"/>

  <!-- Inner cut / depth -->
  <path d="M12 5.1C10.1 6.2 8.2 6.8 6.3 7.1V12.1C6.3 15.2 8.5 18 12 19.1C15.5 18 17.7 15.2 17.7 12.1V7.1C15.8 6.8 13.9 6.2 12 5.1Z" fill="#0B0F1A" fill-opacity="0.22"/>

  <!-- Highlight sheen -->
  <path d="M12 3.2C10.0 4.5 8.0 5.2 6.0 5.6V7.3C7.9 7.0 9.9 6.3 12 5.1C14.1 6.3 16.1 7.0 18.0 7.3V5.6C16.0 5.2 14.0 4.5 12 3.2Z" fill="url(#gHighlight)"/>

  <!-- Lock mark -->
  <path d="M12 10.3C10.9 10.3 10 11.2 10 12.3V13.0H9.3C8.7 13.0 8.2 13.5 8.2 14.1V16.5C8.2 17.1 8.7 17.6 9.3 17.6H14.7C15.3 17.6 15.8 17.1 15.8 16.5V14.1C15.8 13.5 15.3 13.0 14.7 13.0H14V12.3C14 11.2 13.1 10.3 12 10.3Z" fill="#0B0F1A" fill-opacity="0.65"/>
  <path d="M12 11.4C11.5 11.4 11.1 11.8 11.1 12.3V13.0H12.9V12.3C12.9 11.8 12.5 11.4 12 11.4Z" fill="#FFFFFF" fill-opacity="0.75"/>
</svg>
