<svg xmlns="http://www.w3.org/2000/svg" viewBox="0 0 24 24" fill="#1DB954" width="24px" height="24px"><path d="M12 2C6.48 2 2 6.48 2 12s4.48 10 10 10 10-4.48 10-10S17.52 2 12 2zm4.59 14.42c-.18.3-.58.39-.88.21-2.42-1.48-5.46-1.81-9.05-.99-.33.07-.66-.14-.74-.46-.07-.33.14-.66.46-.74 3.93-.9 7.29-.54 10.01 1.12.3.18.39.58.21.88zm1.26-2.81c-.23.37-.71.49-1.08.26-2.86-1.75-7.22-2.26-10.6-1.23-.41.13-.85-.11-.97-.52-.13-.41.11-.85.52-.97 3.9-1.19 8.78-.62 12.12 1.44.38.23.49.71.26 1.08zm.11-2.92c-3.41-2.03-9.05-2.21-12.31-1.22-.49.15-1.01-.12-1.16-.62-.15-.49.12-1.01.62-1.16 3.75-1.13 9.94-.92 13.84 1.4.45.26.6.85.34 1.3-.26.45-.85.6-1.3.34z"/></svg>
